<svg xmlns="http://www.w3.org/2000/svg" viewBox="0 0 34 34"><title>snapchat</title><path d="M17 .5A16.5 16.5 0 1 0 33.5 17 16.5 16.5 0 0 0 17 .5zM26.2 22c-.1.26-.6.62-2.33.9-.15 0-.2.2-.3.6 0 .13-.05.27-.1.4a.24.24 0 0 1-.24.2 2.57 2.57 0 0 1-.4 0 5 5 0 0 0-1-.1 4.74 4.74 0 0 0-.83 0 3.65 3.65 0 0 0-1.44.73 4 4 0 0 1-2.47 1h-.25a4 4 0 0 1-2.47-1A3.65 3.65 0 0 0 13 24a4.74 4.74 0 0 0-.75-.06 5 5 0 0 0-1 .12 2.3 2.3 0 0 1-.4.05.24.24 0 0 1-.26-.18c0-.15-.08-.3-.1-.43-.1-.36-.15-.58-.3-.6-1.8-.3-2.3-.68-2.4-.9v-.1a.2.2 0 0 1 .16-.2 5.73 5.73 0 0 0 3.9-3.3 1 1 0 0 0 .1-.85c-.18-.43-.78-.62-1.17-.75l-.27-.08c-.8-.32-.86-.64-.83-.8s.43-.47.73-.47a.46.46 0 0 1 .2 0 2.28 2.28 0 0 0 1 .25.8.8 0 0 0 .58-.18v-.56a9.35 9.35 0 0 1 .23-3.73 4.82 4.82 0 0 1 4.48-2.9h.38a4.84 4.84 0 0 1 4.5 2.9 9.35 9.35 0 0 1 .1 3.77q0 .27 0 .5a.74.74 0 0 0 .53.2 2.28 2.28 0 0 0 .9-.26.8.8 0 0 1 .28 0 .83.83 0 0 1 .32.06c.26.1.44.28.44.48s-.13.46-.83.74l-.25.08c-.4.13-1 .32-1.17.75a1 1 0 0 0 .1.85 5.73 5.73 0 0 0 3.9 3.3.2.2 0 0 1 .17.2z"/></svg>