<svg height="385pt" viewBox="-13 0 385 385.49119" width="385pt" xmlns="http://www.w3.org/2000/svg"><path d="m350.246094 0h-340c-3.671875 0-7.050782 2.011719-8.796875 5.242188-1.746094 3.230468-1.582031 7.160156.429687 10.234374l118.84375 181.636719v118.375c0 3.5 1.828125 6.746094 4.824219 8.558594l99.046875 60c3.085938 1.867187 6.945312 1.929687 10.089844.15625 3.144531-1.773437 5.089844-5.101563 5.089844-8.710937v-178.378907l118.839843-181.636719c2.011719-3.074218 2.175781-7.003906.429688-10.234374-1.746094-3.230469-5.125-5.242188-8.796875-5.242188zm-128.84375 188.660156c-1.066406 1.625-1.632813 3.527344-1.632813 5.472656v163.613282l-79.046875-47.890625v-115.722657c0-1.945312-.566406-3.847656-1.632812-5.472656l-110.351563-168.660156h303.015625zm0 0"/></svg>