<?xml version="1.0" encoding="UTF-8"?>
<svg width="24px" height="24px" viewBox="0 0 24 24" version="1.1" xmlns="http://www.w3.org/2000/svg" xmlns:xlink="http://www.w3.org/1999/xlink">
    <!-- Generator: Sketch 58 (84663) - https://sketch.com -->
    <title>Social-Medias-Rewards-Rating / Love-It / love-it-add</title>
    <desc>Created with Sketch.</desc>
    <g id="Social-Medias-Rewards-Rating-/-Love-It-/-love-it-add" stroke="none" stroke-width="1" fill="none" fill-rule="evenodd" stroke-linecap="round" stroke-linejoin="round">
        <g id="Group" stroke="#000000" stroke-width="1.5">
            <g id="love-it-add">
                <circle id="Oval" cx="17.254" cy="17.25" r="6"></circle>
                <path d="M17.254,14.25 L17.254,20.25" id="Shape"></path>
                <path d="M14.254,17.25 L20.254,17.25" id="Shape"></path>
                <path d="M8.219,16.5 L2.408,10.435 C0.681003412,8.70834869 0.25280059,6.07024871 1.345,3.886 L1.345,3.886 C2.16049746,2.25501287 3.7104134,1.11556218 5.51040864,0.82371925 C7.31040387,0.531876324 9.1409453,1.12323525 10.43,2.413 L12,3.978 L13.566,2.413 C14.8550547,1.12323525 16.6855961,0.531876324 18.4855914,0.82371925 C20.2855866,1.11556218 21.8355025,2.25501287 22.651,3.886 L22.651,3.886 C23.4553796,5.49771238 23.446844,7.39558799 22.628,9" id="Shape"></path>
            </g>
        </g>
    </g>
</svg>