<svg xmlns="http://www.w3.org/2000/svg" viewBox="0 0 600.38 461"><defs><style>.cls-1{fill:#939393;}</style></defs><title>Middel 1</title><g id="Laag_2" data-name="Laag 2"><g id="Ebene_1" data-name="Ebene 1"><path class="cls-1" d="M358.79,79.22v29.7c0,7.34-7.59,13.3-16.94,13.3H16.94c-9.35,0-16.94-6-16.94-13.3V79.22c0-7.35,7.59-13.3,16.94-13.3H341.85C351.2,65.92,358.79,71.87,358.79,79.22Z"/><path class="cls-1" d="M358.79,190.65v29.7c0,7.35-7.59,13.3-16.94,13.3H16.94c-9.35,0-16.94-6-16.94-13.3v-29.7c0-7.35,7.59-13.3,16.94-13.3H341.85C351.2,177.35,358.79,183.3,358.79,190.65Z"/><path class="cls-1" d="M199.86,302.08v29.7c0,7.35-4.22,13.3-9.43,13.3H9.44c-5.21,0-9.44-5.95-9.44-13.3v-29.7c0-7.34,4.23-13.3,9.44-13.3h181C195.64,288.78,199.86,294.74,199.86,302.08Z"/><rect class="cls-1" x="427.74" width="56.3" height="281.65" rx="13.3" ry="13.3"/><path class="cls-1" d="M596.54,301.6a13.3,13.3,0,0,1,0,18.7l-91.4,91.4-9.3,9.4-9.3,9.4-21.1,21.2L456,461h-.1l-9.4-9.3-21.1-21.1-9.3-9.4-9.3-9.4-91.5-91.4a13.3,13.3,0,0,1,0-18.7l21.1-21.1a13.3,13.3,0,0,1,18.7,0l91.4,91.4a13.3,13.3,0,0,0,18.7,0l91.5-91.4a13.3,13.3,0,0,1,18.7,0Z"/></g></g></svg>