<?xml version="1.0" encoding="utf-8"?>
<!-- Generator: Adobe Illustrator 23.1.1, SVG Export Plug-In . SVG Version: 6.00 Build 0)  -->
<svg version="1.1" id="Laag_1" xmlns="http://www.w3.org/2000/svg" xmlns:xlink="http://www.w3.org/1999/xlink" x="0px" y="0px"
	 viewBox="0 0 24 24" style="enable-background:new 0 0 24 24;" xml:space="preserve">
<style type="text/css">
	.st0{fill:none;stroke:#8B8B8B;stroke-width:1.5;stroke-linecap:round;stroke-linejoin:round;}
</style>
<title>Social-Medias-Rewards-Rating / Rating / rating-star</title>
<desc>Created with Sketch.</desc>
<g>
	<g id="Group">
		<g id="rating-star">
			<path id="Shape" class="st0" d="M12.6,3.6l2.6,5.2l5,0.5c0.2,0,0.5,0.2,0.5,0.4c0.1,0.2,0,0.5-0.1,0.7l-4.1,4.1L18,20
				c0.1,0.2,0,0.5-0.2,0.7c-0.2,0.2-0.5,0.2-0.7,0.1L12,18.2l-5.1,2.5c-0.2,0.1-0.5,0.1-0.7-0.1C6,20.5,6,20.2,6,20l1.5-5.6
				l-4.1-4.1c-0.2-0.2-0.2-0.4-0.1-0.7s0.3-0.4,0.5-0.4l5-0.5l2.6-5.2c0.1-0.2,0.3-0.3,0.6-0.3S12.5,3.4,12.6,3.6z"/>
		</g>
	</g>
</g>
</svg>
