<svg xmlns="http://www.w3.org/2000/svg" viewBox="0 0 143.93 23.07"><defs><style>.cls-1{fill:#fff;}</style></defs><title>Middel 2</title><g id="Laag_2" data-name="Laag 2"><g id="Ebene_1" data-name="Ebene 1"><path class="cls-1" d="M75.11,23.07h-7a2.93,2.93,0,0,1-2.18-.68,3.07,3.07,0,0,1-.65-2.18V2.87A3,3,0,0,1,65.9.68,2.93,2.93,0,0,1,68.06,0h7.47a18.12,18.12,0,0,1,2.86.2A6.12,6.12,0,0,1,80.56,1,5.68,5.68,0,0,1,82,2.23a5.41,5.41,0,0,1,1,1.66A5.52,5.52,0,0,1,83.3,5.8a5.3,5.3,0,0,1-3.46,5.06c3,1,4.55,2.84,4.55,5.63a6.32,6.32,0,0,1-1,3.49,6,6,0,0,1-2.68,2.29,9.61,9.61,0,0,1-2.42.62A24.8,24.8,0,0,1,75.11,23.07ZM69.9,3.52V7.39A2.09,2.09,0,0,0,72,9.48h2.19a8.66,8.66,0,0,0,2.7-.33,2.59,2.59,0,0,0,1.45-1.26,2.85,2.85,0,0,0,.39-1.48,2.29,2.29,0,0,0-1.24-2.32,9.55,9.55,0,0,0-3.79-.57Zm4.86,9.31H69.9v4.64A2.08,2.08,0,0,0,72,19.56h2.93q4.72,0,4.73-3.41a2.78,2.78,0,0,0-1.22-2.53A6.83,6.83,0,0,0,74.76,12.83Z"/><path class="cls-1" d="M35,19.29V21A2.08,2.08,0,0,1,33,23.07H20.9A2.08,2.08,0,0,1,18.82,21V0h2.51a2.08,2.08,0,0,1,2.08,2.08V17.93a1.36,1.36,0,0,0,1.36,1.36Z"/><path class="cls-1" d="M15.81,0V1.47a2.08,2.08,0,0,1-2.08,2.08H6A1.36,1.36,0,0,0,4.6,4.91V9.35h9.65v1.72a1.72,1.72,0,0,1-1.73,1.73H4.6V23.07H0v-21A2.08,2.08,0,0,1,2.08,0Z"/><path class="cls-1" d="M110.5,5.28V7.63a1.72,1.72,0,0,0,1.73,1.72h6.2a1.72,1.72,0,0,1,1.72,1.73h0a1.72,1.72,0,0,1-1.72,1.72h-6.2a1.72,1.72,0,0,0-1.73,1.73V17.8a1.72,1.72,0,0,0,1.73,1.72h7.71a1.78,1.78,0,0,1,1.77,1.78h0a1.77,1.77,0,0,1-1.77,1.77H108A2.08,2.08,0,0,1,105.9,21V0h15.81V1.82A1.72,1.72,0,0,1,120,3.55h-7.75A1.72,1.72,0,0,0,110.5,5.28Z"/><path class="cls-1" d="M39.78,7.67h2.08a0,0,0,0,1,0,0v15.4a0,0,0,0,1,0,0H37.7a0,0,0,0,1,0,0V9.74A2.08,2.08,0,0,1,39.78,7.67Z"/><path class="cls-1" d="M39.27,0h1a1.57,1.57,0,0,1,1.57,1.57V3.86a1.57,1.57,0,0,1-1.57,1.57H37.7a0,0,0,0,1,0,0V1.57A1.57,1.57,0,0,1,39.27,0Z"/><path class="cls-1" d="M86.56,7.6v9.15a6.32,6.32,0,0,0,6.33,6.32H97a6.32,6.32,0,0,0,6.32-6.32V0H94.16A7.6,7.6,0,0,0,86.56,7.6Zm8.36,11.47h0A3.94,3.94,0,0,1,91,15.13V7.94A3.94,3.94,0,0,1,94.92,4h3.94V15.13A3.93,3.93,0,0,1,94.92,19.07Z"/><path class="cls-1" d="M143.29,22.48h0a2.07,2.07,0,0,1-2.93-.07l-8.21-8.57a.39.39,0,0,0-.56,0l-2.67,2.8a.39.39,0,0,0-.11.27V21a2.08,2.08,0,0,1-2.08,2.07h-2.4V0h2.4a2.08,2.08,0,0,1,2.08,2.08V9.8a.38.38,0,0,0,.66.27l9-9.43a2.06,2.06,0,0,1,2.93-.06h0a2.07,2.07,0,0,1,.07,2.93L135,10.28a.38.38,0,0,0,0,.54l8.35,8.73A2.07,2.07,0,0,1,143.29,22.48Z"/><polygon class="cls-1" points="51.37 11.54 49.65 13.88 49.65 13.87 51.37 11.54"/><line class="cls-1" x1="44.08" y1="21.44" x2="44.08" y2="21.43"/><polygon class="cls-1" points="56.53 11.54 53.96 15.04 53.95 15.04 56.53 11.54"/><polygon class="cls-1" points="56.53 11.54 53.95 8.05 53.96 8.04 56.53 11.54"/><polygon class="cls-1" points="56.53 11.54 53.95 8.05 52.23 5.71 53.96 8.04 56.53 11.54"/><polygon class="cls-1" points="56.53 11.54 53.96 15.04 53.95 15.04 56.53 11.54"/><path class="cls-1" d="M62.16,22.67h0a2.08,2.08,0,0,1-2.9-.44l-3.58-4.85,2.58-3.5,4.34,5.89A2.08,2.08,0,0,1,62.16,22.67Z"/><path class="cls-1" d="M62.6,3.31,58.26,9.2,55.68,5.71,59.26.85a2.08,2.08,0,0,1,2.9-.44h0A2.08,2.08,0,0,1,62.6,3.31Z"/><path class="cls-1" d="M44.08,21.43h0M54,15h0l2.57-3.5Zm0-7L52.23,5.71,54,8.05l2.58,3.49Z"/><path class="cls-1" d="M56.53,11.54,48.65,22.22a2.07,2.07,0,0,1-2.9.44h0a2.07,2.07,0,0,1-.43-2.9l6.06-8.22L45.31,3.31a2.07,2.07,0,0,1,.43-2.9h0a2.08,2.08,0,0,1,2.9.44Z"/><polygon class="cls-1" points="56.53 11.54 53.96 15.04 53.95 15.04 56.53 11.54"/><path class="cls-1" d="M62.16,22.67h0a2.08,2.08,0,0,1-2.9-.44l-3.58-4.85,2.58-3.5,4.34,5.89A2.08,2.08,0,0,1,62.16,22.67Z"/></g></g></svg>