<svg id="Layer_1" data-name="Layer 1" xmlns="http://www.w3.org/2000/svg" viewBox="0 0 30 30"><title>calendar_S</title><path d="M26.81,4.53h-3.9V3.28a.5.5,0,0,0-1,0V4.53H7.73V3.28a.5.5,0,0,0-1,0V4.53H3.19A2.5,2.5,0,0,0,.69,7V24.72a2.5,2.5,0,0,0,2.5,2.5H26.81a2.5,2.5,0,0,0,2.5-2.5V7A2.5,2.5,0,0,0,26.81,4.53Zm-23.63,1H6.73V6.78a.5.5,0,0,0,1,0V5.53H21.91V6.78a.5.5,0,0,0,1,0V5.53h3.9A1.5,1.5,0,0,1,28.31,7V10.1l-26.63.08V7A1.5,1.5,0,0,1,3.19,5.53ZM26.81,26.22H3.19a1.5,1.5,0,0,1-1.5-1.5V11.18l26.63-.08V24.72A1.5,1.5,0,0,1,26.81,26.22Z" style="fill:#8b8b8b"/><circle cx="12.23" cy="14.51" r="1" style="fill:#8b8b8b"/><circle cx="17.24" cy="14.51" r="1" style="fill:#8b8b8b"/><circle cx="22.17" cy="14.51" r="1" style="fill:#8b8b8b"/><circle cx="12.23" cy="18.7" r="1" style="fill:#8b8b8b"/><circle cx="7.23" cy="18.7" r="1" style="fill:#8b8b8b"/><circle cx="12.23" cy="22.88" r="1" style="fill:#8b8b8b"/><circle cx="7.23" cy="22.88" r="1" style="fill:#8b8b8b"/><circle cx="17.24" cy="18.7" r="1" style="fill:#8b8b8b"/><circle cx="22.17" cy="18.7" r="1" style="fill:#8b8b8b"/></svg>