<?xml version="1.0" encoding="utf-8"?>
<!-- Generator: Adobe Illustrator 23.0.6, SVG Export Plug-In . SVG Version: 6.00 Build 0)  -->
<svg version="1.1" id="Laag_1" xmlns="http://www.w3.org/2000/svg" xmlns:xlink="http://www.w3.org/1999/xlink" x="0px" y="0px"
	 viewBox="0 0 22 22" style="enable-background:new 0 0 22 22;" xml:space="preserve">
<style type="text/css">
	.st0{fill:#8B8B8B;}
</style>
<title>Middel 1</title>
<g>
	<g id="Layer_1">
		<path class="st0" d="M21.4,10.8c-0.7-1.4-1.7-2.6-2.7-3.8c-1.2-1.3-2.6-2.3-4.1-3l-0.1,0c-1-0.5-2.2-0.7-3.3-0.7h-0.2
			C9.7,3.2,8.6,3.5,7.6,4L7.5,4c-1.6,0.7-3,1.7-4.1,3c-1.1,1.1-2,2.4-2.7,3.8c-0.1,0.1-0.1,0.3,0,0.4c0.8,1.4,1.7,2.6,2.8,3.8
			c1.1,1.1,2.3,2.1,3.7,2.8h0c1.1,0.6,2.4,1,3.7,1h0.2c1.3,0,2.6-0.3,3.7-1h0c1.4-0.7,2.6-1.7,3.7-2.8c1.1-1.1,2-2.4,2.8-3.8
			C21.4,11.1,21.4,10.9,21.4,10.8z M3.8,14.1c-0.9-1-1.6-2-2.3-3.1c0.7-1.1,1.4-2.2,2.3-3.2c-0.5,1-0.7,2.1-0.7,3.2
			C3.1,12.1,3.3,13.1,3.8,14.1z M14.5,17c-1.1,0.6-2.3,0.9-3.5,0.9c-1.2,0-2.4-0.3-3.5-0.9C4.2,15.1,3,10.9,4.9,7.6
			c0.7-1.2,1.7-2.1,2.9-2.8l0,0c1-0.5,2.1-0.7,3.2-0.8c1.1,0,2.2,0.3,3.2,0.7h0c3.4,1.7,4.8,5.9,3.1,9.3
			C16.7,15.3,15.7,16.3,14.5,17L14.5,17z M18.2,14.1c0.4-1,0.6-2,0.6-3.1c0-1.1-0.2-2.2-0.7-3.2c0.9,1,1.7,2,2.3,3.2
			C19.9,12.1,19.1,13.1,18.2,14.1L18.2,14.1z"/>
		<path class="st0" d="M7.4,11c0,1.9,1.5,3.4,3.4,3.4s3.4-1.5,3.4-3.4s-1.5-3.4-3.4-3.4S7.4,9.1,7.4,11L7.4,11z M13.5,11
			c0,1.4-1.2,2.6-2.6,2.6S8.3,12.4,8.3,11c0-1.4,1.2-2.6,2.6-2.6c0,0,0,0,0,0l0,0C12.3,8.4,13.5,9.6,13.5,11z"/>
	</g>
</g>
</svg>
