<svg xmlns="http://www.w3.org/2000/svg" viewBox="0 0 288.88 438.32"><defs><style>.cls-1{fill:#939393;}</style></defs><title>Middel 1</title><g id="Laag_2" data-name="Laag 2"><g id="Ebene_1" data-name="Ebene 1"><path class="cls-1" d="M285,159.4a13.3,13.3,0,0,0,0-18.7l-91.4-91.4-9.3-9.4L175,30.5,153.94,9.3,144.44,0h-.1l-9.4,9.3-21.1,21.1-9.3,9.4-9.3,9.4L3.84,140.7a13.3,13.3,0,0,0,0,18.7l21.1,21.1a13.3,13.3,0,0,0,18.7,0L135,89.1a13.3,13.3,0,0,1,18.7,0l91.4,91.4a13.3,13.3,0,0,0,18.7,0Z"/><path class="cls-1" d="M285,278.92a13.3,13.3,0,0,1,0,18.7L193.64,389l-9.3,9.4-9.3,9.4L153.94,429l-9.4,9.3h-.1L135,429l-21.1-21.1-9.3-9.4-9.3-9.4-91.5-91.4a13.3,13.3,0,0,1,0-18.7l21.1-21.1a13.3,13.3,0,0,1,18.7,0l91.4,91.4a13.3,13.3,0,0,0,18.7,0l91.5-91.4a13.3,13.3,0,0,1,18.7,0Z"/></g></g></svg>